<mxfile host="app.diagrams.net" agent="Mozilla/5.0 (Macintosh; Intel Mac OS X 10_15_7) AppleWebKit/537.36 (KHTML, like Gecko) Chrome/134.0.0.0 Safari/537.36" version="26.1.3">
  <diagram name="PÃ¡gina-1" id="qHN6CZ9pmEDDBAJCD14m">
    <mxGraphModel dx="1434" dy="819" grid="1" gridSize="10" guides="1" tooltips="1" connect="1" arrows="1" fold="1" page="1" pageScale="1" pageWidth="850" pageHeight="1100" math="0" shadow="0">
      <root>
        <mxCell id="0" />
        <mxCell id="1" parent="0" />
        <mxCell id="kR_IMpgb3ow4zJhTE3xn-17" value="" style="shape=table;startSize=0;container=1;collapsible=0;childLayout=tableLayout;" vertex="1" parent="1">
          <mxGeometry x="227" y="100" width="260" height="200" as="geometry" />
        </mxCell>
        <mxCell id="kR_IMpgb3ow4zJhTE3xn-18" value="" style="shape=tableRow;horizontal=0;startSize=0;swimlaneHead=0;swimlaneBody=0;strokeColor=inherit;top=0;left=0;bottom=0;right=0;collapsible=0;dropTarget=0;fillColor=none;points=[[0,0.5],[1,0.5]];portConstraint=eastwest;" vertex="1" parent="kR_IMpgb3ow4zJhTE3xn-17">
          <mxGeometry width="260" height="40" as="geometry" />
        </mxCell>
        <mxCell id="kR_IMpgb3ow4zJhTE3xn-19" value="&lt;font style=&quot;color: rgb(0, 0, 0);&quot;&gt;Slotdates&lt;/font&gt;" style="shape=partialRectangle;html=1;whiteSpace=wrap;connectable=0;strokeColor=#b85450;overflow=hidden;fillColor=#f8cecc;top=0;left=0;bottom=0;right=0;pointerEvents=1;" vertex="1" parent="kR_IMpgb3ow4zJhTE3xn-18">
          <mxGeometry width="130" height="40" as="geometry">
            <mxRectangle width="130" height="40" as="alternateBounds" />
          </mxGeometry>
        </mxCell>
        <mxCell id="kR_IMpgb3ow4zJhTE3xn-20" value="Character" style="shape=partialRectangle;html=1;whiteSpace=wrap;connectable=0;strokeColor=#b85450;overflow=hidden;fillColor=#f8cecc;top=0;left=0;bottom=0;right=0;pointerEvents=1;" vertex="1" parent="kR_IMpgb3ow4zJhTE3xn-18">
          <mxGeometry x="130" width="130" height="40" as="geometry">
            <mxRectangle width="130" height="40" as="alternateBounds" />
          </mxGeometry>
        </mxCell>
        <mxCell id="kR_IMpgb3ow4zJhTE3xn-21" value="" style="shape=tableRow;horizontal=0;startSize=0;swimlaneHead=0;swimlaneBody=0;strokeColor=inherit;top=0;left=0;bottom=0;right=0;collapsible=0;dropTarget=0;fillColor=none;points=[[0,0.5],[1,0.5]];portConstraint=eastwest;" vertex="1" parent="kR_IMpgb3ow4zJhTE3xn-17">
          <mxGeometry y="40" width="260" height="40" as="geometry" />
        </mxCell>
        <mxCell id="kR_IMpgb3ow4zJhTE3xn-22" value="idDoctor" style="shape=partialRectangle;html=1;whiteSpace=wrap;connectable=0;strokeColor=inherit;overflow=hidden;fillColor=none;top=0;left=0;bottom=0;right=0;pointerEvents=1;" vertex="1" parent="kR_IMpgb3ow4zJhTE3xn-21">
          <mxGeometry width="130" height="40" as="geometry">
            <mxRectangle width="130" height="40" as="alternateBounds" />
          </mxGeometry>
        </mxCell>
        <mxCell id="kR_IMpgb3ow4zJhTE3xn-23" value="String" style="shape=partialRectangle;html=1;whiteSpace=wrap;connectable=0;strokeColor=inherit;overflow=hidden;fillColor=none;top=0;left=0;bottom=0;right=0;pointerEvents=1;" vertex="1" parent="kR_IMpgb3ow4zJhTE3xn-21">
          <mxGeometry x="130" width="130" height="40" as="geometry">
            <mxRectangle width="130" height="40" as="alternateBounds" />
          </mxGeometry>
        </mxCell>
        <mxCell id="kR_IMpgb3ow4zJhTE3xn-24" value="" style="shape=tableRow;horizontal=0;startSize=0;swimlaneHead=0;swimlaneBody=0;strokeColor=inherit;top=0;left=0;bottom=0;right=0;collapsible=0;dropTarget=0;fillColor=none;points=[[0,0.5],[1,0.5]];portConstraint=eastwest;" vertex="1" parent="kR_IMpgb3ow4zJhTE3xn-17">
          <mxGeometry y="80" width="260" height="40" as="geometry" />
        </mxCell>
        <mxCell id="kR_IMpgb3ow4zJhTE3xn-25" value="idClinic" style="shape=partialRectangle;html=1;whiteSpace=wrap;connectable=0;strokeColor=inherit;overflow=hidden;fillColor=none;top=0;left=0;bottom=0;right=0;pointerEvents=1;" vertex="1" parent="kR_IMpgb3ow4zJhTE3xn-24">
          <mxGeometry width="130" height="40" as="geometry">
            <mxRectangle width="130" height="40" as="alternateBounds" />
          </mxGeometry>
        </mxCell>
        <mxCell id="kR_IMpgb3ow4zJhTE3xn-26" value="String" style="shape=partialRectangle;html=1;whiteSpace=wrap;connectable=0;strokeColor=inherit;overflow=hidden;fillColor=none;top=0;left=0;bottom=0;right=0;pointerEvents=1;" vertex="1" parent="kR_IMpgb3ow4zJhTE3xn-24">
          <mxGeometry x="130" width="130" height="40" as="geometry">
            <mxRectangle width="130" height="40" as="alternateBounds" />
          </mxGeometry>
        </mxCell>
        <mxCell id="kR_IMpgb3ow4zJhTE3xn-27" value="" style="shape=tableRow;horizontal=0;startSize=0;swimlaneHead=0;swimlaneBody=0;strokeColor=inherit;top=0;left=0;bottom=0;right=0;collapsible=0;dropTarget=0;fillColor=none;points=[[0,0.5],[1,0.5]];portConstraint=eastwest;" vertex="1" parent="kR_IMpgb3ow4zJhTE3xn-17">
          <mxGeometry y="120" width="260" height="40" as="geometry" />
        </mxCell>
        <mxCell id="kR_IMpgb3ow4zJhTE3xn-28" value="date" style="shape=partialRectangle;html=1;whiteSpace=wrap;connectable=0;strokeColor=inherit;overflow=hidden;fillColor=none;top=0;left=0;bottom=0;right=0;pointerEvents=1;" vertex="1" parent="kR_IMpgb3ow4zJhTE3xn-27">
          <mxGeometry width="130" height="40" as="geometry">
            <mxRectangle width="130" height="40" as="alternateBounds" />
          </mxGeometry>
        </mxCell>
        <mxCell id="kR_IMpgb3ow4zJhTE3xn-29" value="Object" style="shape=partialRectangle;html=1;whiteSpace=wrap;connectable=0;strokeColor=inherit;overflow=hidden;fillColor=none;top=0;left=0;bottom=0;right=0;pointerEvents=1;" vertex="1" parent="kR_IMpgb3ow4zJhTE3xn-27">
          <mxGeometry x="130" width="130" height="40" as="geometry">
            <mxRectangle width="130" height="40" as="alternateBounds" />
          </mxGeometry>
        </mxCell>
        <mxCell id="kR_IMpgb3ow4zJhTE3xn-30" value="" style="shape=tableRow;horizontal=0;startSize=0;swimlaneHead=0;swimlaneBody=0;strokeColor=inherit;top=0;left=0;bottom=0;right=0;collapsible=0;dropTarget=0;fillColor=none;points=[[0,0.5],[1,0.5]];portConstraint=eastwest;" vertex="1" parent="kR_IMpgb3ow4zJhTE3xn-17">
          <mxGeometry y="160" width="260" height="40" as="geometry" />
        </mxCell>
        <mxCell id="kR_IMpgb3ow4zJhTE3xn-31" value="slots" style="shape=partialRectangle;html=1;whiteSpace=wrap;connectable=0;strokeColor=inherit;overflow=hidden;fillColor=none;top=0;left=0;bottom=0;right=0;pointerEvents=1;" vertex="1" parent="kR_IMpgb3ow4zJhTE3xn-30">
          <mxGeometry width="130" height="40" as="geometry">
            <mxRectangle width="130" height="40" as="alternateBounds" />
          </mxGeometry>
        </mxCell>
        <mxCell id="kR_IMpgb3ow4zJhTE3xn-32" value="Object" style="shape=partialRectangle;html=1;whiteSpace=wrap;connectable=0;strokeColor=inherit;overflow=hidden;fillColor=none;top=0;left=0;bottom=0;right=0;pointerEvents=1;" vertex="1" parent="kR_IMpgb3ow4zJhTE3xn-30">
          <mxGeometry x="130" width="130" height="40" as="geometry">
            <mxRectangle width="130" height="40" as="alternateBounds" />
          </mxGeometry>
        </mxCell>
        <mxCell id="kR_IMpgb3ow4zJhTE3xn-36" value="" style="shape=table;startSize=0;container=1;collapsible=0;childLayout=tableLayout;" vertex="1" parent="1">
          <mxGeometry x="562" y="270" width="160" height="120" as="geometry" />
        </mxCell>
        <mxCell id="kR_IMpgb3ow4zJhTE3xn-37" value="" style="shape=tableRow;horizontal=0;startSize=0;swimlaneHead=0;swimlaneBody=0;strokeColor=inherit;top=0;left=0;bottom=0;right=0;collapsible=0;dropTarget=0;fillColor=none;points=[[0,0.5],[1,0.5]];portConstraint=eastwest;" vertex="1" parent="kR_IMpgb3ow4zJhTE3xn-36">
          <mxGeometry width="160" height="40" as="geometry" />
        </mxCell>
        <mxCell id="kR_IMpgb3ow4zJhTE3xn-38" value="Slots" style="shape=partialRectangle;html=1;whiteSpace=wrap;connectable=0;strokeColor=#b85450;overflow=hidden;fillColor=#f8cecc;top=0;left=0;bottom=0;right=0;pointerEvents=1;" vertex="1" parent="kR_IMpgb3ow4zJhTE3xn-37">
          <mxGeometry width="80" height="40" as="geometry">
            <mxRectangle width="80" height="40" as="alternateBounds" />
          </mxGeometry>
        </mxCell>
        <mxCell id="kR_IMpgb3ow4zJhTE3xn-39" value="Caracter" style="shape=partialRectangle;html=1;whiteSpace=wrap;connectable=0;strokeColor=#b85450;overflow=hidden;fillColor=#f8cecc;top=0;left=0;bottom=0;right=0;pointerEvents=1;" vertex="1" parent="kR_IMpgb3ow4zJhTE3xn-37">
          <mxGeometry x="80" width="80" height="40" as="geometry">
            <mxRectangle width="80" height="40" as="alternateBounds" />
          </mxGeometry>
        </mxCell>
        <mxCell id="kR_IMpgb3ow4zJhTE3xn-40" value="" style="shape=tableRow;horizontal=0;startSize=0;swimlaneHead=0;swimlaneBody=0;strokeColor=inherit;top=0;left=0;bottom=0;right=0;collapsible=0;dropTarget=0;fillColor=none;points=[[0,0.5],[1,0.5]];portConstraint=eastwest;" vertex="1" parent="kR_IMpgb3ow4zJhTE3xn-36">
          <mxGeometry y="40" width="160" height="40" as="geometry" />
        </mxCell>
        <mxCell id="kR_IMpgb3ow4zJhTE3xn-41" value="sourceEvent" style="shape=partialRectangle;html=1;whiteSpace=wrap;connectable=0;strokeColor=inherit;overflow=hidden;fillColor=none;top=0;left=0;bottom=0;right=0;pointerEvents=1;" vertex="1" parent="kR_IMpgb3ow4zJhTE3xn-40">
          <mxGeometry width="80" height="40" as="geometry">
            <mxRectangle width="80" height="40" as="alternateBounds" />
          </mxGeometry>
        </mxCell>
        <mxCell id="kR_IMpgb3ow4zJhTE3xn-42" value="String" style="shape=partialRectangle;html=1;whiteSpace=wrap;connectable=0;strokeColor=inherit;overflow=hidden;fillColor=none;top=0;left=0;bottom=0;right=0;pointerEvents=1;" vertex="1" parent="kR_IMpgb3ow4zJhTE3xn-40">
          <mxGeometry x="80" width="80" height="40" as="geometry">
            <mxRectangle width="80" height="40" as="alternateBounds" />
          </mxGeometry>
        </mxCell>
        <mxCell id="kR_IMpgb3ow4zJhTE3xn-43" value="" style="shape=tableRow;horizontal=0;startSize=0;swimlaneHead=0;swimlaneBody=0;strokeColor=inherit;top=0;left=0;bottom=0;right=0;collapsible=0;dropTarget=0;fillColor=none;points=[[0,0.5],[1,0.5]];portConstraint=eastwest;" vertex="1" parent="kR_IMpgb3ow4zJhTE3xn-36">
          <mxGeometry y="80" width="160" height="40" as="geometry" />
        </mxCell>
        <mxCell id="kR_IMpgb3ow4zJhTE3xn-44" value="dateTime" style="shape=partialRectangle;html=1;whiteSpace=wrap;connectable=0;strokeColor=inherit;overflow=hidden;fillColor=none;top=0;left=0;bottom=0;right=0;pointerEvents=1;" vertex="1" parent="kR_IMpgb3ow4zJhTE3xn-43">
          <mxGeometry width="80" height="40" as="geometry">
            <mxRectangle width="80" height="40" as="alternateBounds" />
          </mxGeometry>
        </mxCell>
        <mxCell id="kR_IMpgb3ow4zJhTE3xn-45" value="Date" style="shape=partialRectangle;html=1;whiteSpace=wrap;connectable=0;strokeColor=inherit;overflow=hidden;fillColor=none;top=0;left=0;bottom=0;right=0;pointerEvents=1;" vertex="1" parent="kR_IMpgb3ow4zJhTE3xn-43">
          <mxGeometry x="80" width="80" height="40" as="geometry">
            <mxRectangle width="80" height="40" as="alternateBounds" />
          </mxGeometry>
        </mxCell>
        <mxCell id="kR_IMpgb3ow4zJhTE3xn-46" style="edgeStyle=orthogonalEdgeStyle;rounded=0;orthogonalLoop=1;jettySize=auto;html=1;exitX=1;exitY=0.5;exitDx=0;exitDy=0;entryX=0;entryY=0.25;entryDx=0;entryDy=0;entryPerimeter=0;" edge="1" parent="1" source="kR_IMpgb3ow4zJhTE3xn-30" target="kR_IMpgb3ow4zJhTE3xn-37">
          <mxGeometry relative="1" as="geometry" />
        </mxCell>
        <mxCell id="kR_IMpgb3ow4zJhTE3xn-47" value="Disponibilidad" style="text;html=1;align=center;verticalAlign=middle;whiteSpace=wrap;rounded=0;" vertex="1" parent="1">
          <mxGeometry x="129" y="270" width="60" height="30" as="geometry" />
        </mxCell>
        <mxCell id="kR_IMpgb3ow4zJhTE3xn-48" value="No Disponible" style="text;html=1;align=center;verticalAlign=middle;whiteSpace=wrap;rounded=0;" vertex="1" parent="1">
          <mxGeometry x="129" y="220" width="60" height="30" as="geometry" />
        </mxCell>
        <mxCell id="kR_IMpgb3ow4zJhTE3xn-71" value="" style="shape=table;startSize=0;container=1;collapsible=0;childLayout=tableLayout;" vertex="1" parent="1">
          <mxGeometry x="130" y="440" width="370" height="300" as="geometry" />
        </mxCell>
        <mxCell id="kR_IMpgb3ow4zJhTE3xn-72" value="" style="shape=tableRow;horizontal=0;startSize=0;swimlaneHead=0;swimlaneBody=0;strokeColor=inherit;top=0;left=0;bottom=0;right=0;collapsible=0;dropTarget=0;fillColor=none;points=[[0,0.5],[1,0.5]];portConstraint=eastwest;" vertex="1" parent="kR_IMpgb3ow4zJhTE3xn-71">
          <mxGeometry width="370" height="38" as="geometry" />
        </mxCell>
        <mxCell id="kR_IMpgb3ow4zJhTE3xn-73" value="Patients" style="shape=partialRectangle;html=1;whiteSpace=wrap;connectable=0;strokeColor=#b85450;overflow=hidden;fillColor=#f8cecc;top=0;left=0;bottom=0;right=0;pointerEvents=1;" vertex="1" parent="kR_IMpgb3ow4zJhTE3xn-72">
          <mxGeometry width="185" height="38" as="geometry">
            <mxRectangle width="185" height="38" as="alternateBounds" />
          </mxGeometry>
        </mxCell>
        <mxCell id="kR_IMpgb3ow4zJhTE3xn-74" value="Character" style="shape=partialRectangle;html=1;whiteSpace=wrap;connectable=0;strokeColor=#b85450;overflow=hidden;fillColor=#f8cecc;top=0;left=0;bottom=0;right=0;pointerEvents=1;" vertex="1" parent="kR_IMpgb3ow4zJhTE3xn-72">
          <mxGeometry x="185" width="185" height="38" as="geometry">
            <mxRectangle width="185" height="38" as="alternateBounds" />
          </mxGeometry>
        </mxCell>
        <mxCell id="kR_IMpgb3ow4zJhTE3xn-75" value="" style="shape=tableRow;horizontal=0;startSize=0;swimlaneHead=0;swimlaneBody=0;strokeColor=inherit;top=0;left=0;bottom=0;right=0;collapsible=0;dropTarget=0;fillColor=none;points=[[0,0.5],[1,0.5]];portConstraint=eastwest;" vertex="1" parent="kR_IMpgb3ow4zJhTE3xn-71">
          <mxGeometry y="38" width="370" height="37" as="geometry" />
        </mxCell>
        <mxCell id="kR_IMpgb3ow4zJhTE3xn-76" value="First name" style="shape=partialRectangle;html=1;whiteSpace=wrap;connectable=0;strokeColor=inherit;overflow=hidden;fillColor=none;top=0;left=0;bottom=0;right=0;pointerEvents=1;" vertex="1" parent="kR_IMpgb3ow4zJhTE3xn-75">
          <mxGeometry width="185" height="37" as="geometry">
            <mxRectangle width="185" height="37" as="alternateBounds" />
          </mxGeometry>
        </mxCell>
        <mxCell id="kR_IMpgb3ow4zJhTE3xn-77" value="String" style="shape=partialRectangle;html=1;whiteSpace=wrap;connectable=0;strokeColor=inherit;overflow=hidden;fillColor=none;top=0;left=0;bottom=0;right=0;pointerEvents=1;" vertex="1" parent="kR_IMpgb3ow4zJhTE3xn-75">
          <mxGeometry x="185" width="185" height="37" as="geometry">
            <mxRectangle width="185" height="37" as="alternateBounds" />
          </mxGeometry>
        </mxCell>
        <mxCell id="kR_IMpgb3ow4zJhTE3xn-78" value="" style="shape=tableRow;horizontal=0;startSize=0;swimlaneHead=0;swimlaneBody=0;strokeColor=inherit;top=0;left=0;bottom=0;right=0;collapsible=0;dropTarget=0;fillColor=none;points=[[0,0.5],[1,0.5]];portConstraint=eastwest;" vertex="1" parent="kR_IMpgb3ow4zJhTE3xn-71">
          <mxGeometry y="75" width="370" height="38" as="geometry" />
        </mxCell>
        <mxCell id="kR_IMpgb3ow4zJhTE3xn-79" value="Last name" style="shape=partialRectangle;html=1;whiteSpace=wrap;connectable=0;strokeColor=inherit;overflow=hidden;fillColor=none;top=0;left=0;bottom=0;right=0;pointerEvents=1;" vertex="1" parent="kR_IMpgb3ow4zJhTE3xn-78">
          <mxGeometry width="185" height="38" as="geometry">
            <mxRectangle width="185" height="38" as="alternateBounds" />
          </mxGeometry>
        </mxCell>
        <mxCell id="kR_IMpgb3ow4zJhTE3xn-80" value="String" style="shape=partialRectangle;html=1;whiteSpace=wrap;connectable=0;strokeColor=inherit;overflow=hidden;fillColor=none;top=0;left=0;bottom=0;right=0;pointerEvents=1;" vertex="1" parent="kR_IMpgb3ow4zJhTE3xn-78">
          <mxGeometry x="185" width="185" height="38" as="geometry">
            <mxRectangle width="185" height="38" as="alternateBounds" />
          </mxGeometry>
        </mxCell>
        <mxCell id="kR_IMpgb3ow4zJhTE3xn-81" value="" style="shape=tableRow;horizontal=0;startSize=0;swimlaneHead=0;swimlaneBody=0;strokeColor=inherit;top=0;left=0;bottom=0;right=0;collapsible=0;dropTarget=0;fillColor=none;points=[[0,0.5],[1,0.5]];portConstraint=eastwest;" vertex="1" parent="kR_IMpgb3ow4zJhTE3xn-71">
          <mxGeometry y="113" width="370" height="37" as="geometry" />
        </mxCell>
        <mxCell id="kR_IMpgb3ow4zJhTE3xn-82" value="Email" style="shape=partialRectangle;html=1;whiteSpace=wrap;connectable=0;strokeColor=inherit;overflow=hidden;fillColor=none;top=0;left=0;bottom=0;right=0;pointerEvents=1;" vertex="1" parent="kR_IMpgb3ow4zJhTE3xn-81">
          <mxGeometry width="185" height="37" as="geometry">
            <mxRectangle width="185" height="37" as="alternateBounds" />
          </mxGeometry>
        </mxCell>
        <mxCell id="kR_IMpgb3ow4zJhTE3xn-83" value="String" style="shape=partialRectangle;html=1;whiteSpace=wrap;connectable=0;strokeColor=inherit;overflow=hidden;fillColor=none;top=0;left=0;bottom=0;right=0;pointerEvents=1;" vertex="1" parent="kR_IMpgb3ow4zJhTE3xn-81">
          <mxGeometry x="185" width="185" height="37" as="geometry">
            <mxRectangle width="185" height="37" as="alternateBounds" />
          </mxGeometry>
        </mxCell>
        <mxCell id="kR_IMpgb3ow4zJhTE3xn-84" value="" style="shape=tableRow;horizontal=0;startSize=0;swimlaneHead=0;swimlaneBody=0;strokeColor=inherit;top=0;left=0;bottom=0;right=0;collapsible=0;dropTarget=0;fillColor=none;points=[[0,0.5],[1,0.5]];portConstraint=eastwest;" vertex="1" parent="kR_IMpgb3ow4zJhTE3xn-71">
          <mxGeometry y="150" width="370" height="38" as="geometry" />
        </mxCell>
        <mxCell id="kR_IMpgb3ow4zJhTE3xn-85" value="Phone" style="shape=partialRectangle;html=1;whiteSpace=wrap;connectable=0;strokeColor=inherit;overflow=hidden;fillColor=none;top=0;left=0;bottom=0;right=0;pointerEvents=1;" vertex="1" parent="kR_IMpgb3ow4zJhTE3xn-84">
          <mxGeometry width="185" height="38" as="geometry">
            <mxRectangle width="185" height="38" as="alternateBounds" />
          </mxGeometry>
        </mxCell>
        <mxCell id="kR_IMpgb3ow4zJhTE3xn-86" value="String" style="shape=partialRectangle;html=1;whiteSpace=wrap;connectable=0;strokeColor=inherit;overflow=hidden;fillColor=none;top=0;left=0;bottom=0;right=0;pointerEvents=1;" vertex="1" parent="kR_IMpgb3ow4zJhTE3xn-84">
          <mxGeometry x="185" width="185" height="38" as="geometry">
            <mxRectangle width="185" height="38" as="alternateBounds" />
          </mxGeometry>
        </mxCell>
        <mxCell id="kR_IMpgb3ow4zJhTE3xn-87" value="" style="shape=tableRow;horizontal=0;startSize=0;swimlaneHead=0;swimlaneBody=0;strokeColor=inherit;top=0;left=0;bottom=0;right=0;collapsible=0;dropTarget=0;fillColor=none;points=[[0,0.5],[1,0.5]];portConstraint=eastwest;" vertex="1" parent="kR_IMpgb3ow4zJhTE3xn-71">
          <mxGeometry y="188" width="370" height="37" as="geometry" />
        </mxCell>
        <mxCell id="kR_IMpgb3ow4zJhTE3xn-88" value="Address" style="shape=partialRectangle;html=1;whiteSpace=wrap;connectable=0;strokeColor=inherit;overflow=hidden;fillColor=none;top=0;left=0;bottom=0;right=0;pointerEvents=1;" vertex="1" parent="kR_IMpgb3ow4zJhTE3xn-87">
          <mxGeometry width="185" height="37" as="geometry">
            <mxRectangle width="185" height="37" as="alternateBounds" />
          </mxGeometry>
        </mxCell>
        <mxCell id="kR_IMpgb3ow4zJhTE3xn-89" value="String" style="shape=partialRectangle;html=1;whiteSpace=wrap;connectable=0;strokeColor=inherit;overflow=hidden;fillColor=none;top=0;left=0;bottom=0;right=0;pointerEvents=1;" vertex="1" parent="kR_IMpgb3ow4zJhTE3xn-87">
          <mxGeometry x="185" width="185" height="37" as="geometry">
            <mxRectangle width="185" height="37" as="alternateBounds" />
          </mxGeometry>
        </mxCell>
        <mxCell id="kR_IMpgb3ow4zJhTE3xn-90" value="" style="shape=tableRow;horizontal=0;startSize=0;swimlaneHead=0;swimlaneBody=0;strokeColor=inherit;top=0;left=0;bottom=0;right=0;collapsible=0;dropTarget=0;fillColor=none;points=[[0,0.5],[1,0.5]];portConstraint=eastwest;" vertex="1" parent="kR_IMpgb3ow4zJhTE3xn-71">
          <mxGeometry y="225" width="370" height="38" as="geometry" />
        </mxCell>
        <mxCell id="kR_IMpgb3ow4zJhTE3xn-91" value="Date of birth" style="shape=partialRectangle;html=1;whiteSpace=wrap;connectable=0;strokeColor=inherit;overflow=hidden;fillColor=none;top=0;left=0;bottom=0;right=0;pointerEvents=1;" vertex="1" parent="kR_IMpgb3ow4zJhTE3xn-90">
          <mxGeometry width="185" height="38" as="geometry">
            <mxRectangle width="185" height="38" as="alternateBounds" />
          </mxGeometry>
        </mxCell>
        <mxCell id="kR_IMpgb3ow4zJhTE3xn-92" value="Date" style="shape=partialRectangle;html=1;whiteSpace=wrap;connectable=0;strokeColor=inherit;overflow=hidden;fillColor=none;top=0;left=0;bottom=0;right=0;pointerEvents=1;" vertex="1" parent="kR_IMpgb3ow4zJhTE3xn-90">
          <mxGeometry x="185" width="185" height="38" as="geometry">
            <mxRectangle width="185" height="38" as="alternateBounds" />
          </mxGeometry>
        </mxCell>
        <mxCell id="kR_IMpgb3ow4zJhTE3xn-93" value="" style="shape=tableRow;horizontal=0;startSize=0;swimlaneHead=0;swimlaneBody=0;strokeColor=inherit;top=0;left=0;bottom=0;right=0;collapsible=0;dropTarget=0;fillColor=none;points=[[0,0.5],[1,0.5]];portConstraint=eastwest;" vertex="1" parent="kR_IMpgb3ow4zJhTE3xn-71">
          <mxGeometry y="263" width="370" height="37" as="geometry" />
        </mxCell>
        <mxCell id="kR_IMpgb3ow4zJhTE3xn-94" value="Medical history" style="shape=partialRectangle;html=1;whiteSpace=wrap;connectable=0;strokeColor=inherit;overflow=hidden;fillColor=none;top=0;left=0;bottom=0;right=0;pointerEvents=1;" vertex="1" parent="kR_IMpgb3ow4zJhTE3xn-93">
          <mxGeometry width="185" height="37" as="geometry">
            <mxRectangle width="185" height="37" as="alternateBounds" />
          </mxGeometry>
        </mxCell>
        <mxCell id="kR_IMpgb3ow4zJhTE3xn-95" value="Array" style="shape=partialRectangle;html=1;whiteSpace=wrap;connectable=0;strokeColor=inherit;overflow=hidden;fillColor=none;top=0;left=0;bottom=0;right=0;pointerEvents=1;" vertex="1" parent="kR_IMpgb3ow4zJhTE3xn-93">
          <mxGeometry x="185" width="185" height="37" as="geometry">
            <mxRectangle width="185" height="37" as="alternateBounds" />
          </mxGeometry>
        </mxCell>
        <mxCell id="kR_IMpgb3ow4zJhTE3xn-96" value="" style="shape=table;startSize=0;container=1;collapsible=0;childLayout=tableLayout;" vertex="1" parent="1">
          <mxGeometry x="540" y="700" width="180" height="140" as="geometry" />
        </mxCell>
        <mxCell id="kR_IMpgb3ow4zJhTE3xn-97" value="" style="shape=tableRow;horizontal=0;startSize=0;swimlaneHead=0;swimlaneBody=0;strokeColor=inherit;top=0;left=0;bottom=0;right=0;collapsible=0;dropTarget=0;fillColor=none;points=[[0,0.5],[1,0.5]];portConstraint=eastwest;" vertex="1" parent="kR_IMpgb3ow4zJhTE3xn-96">
          <mxGeometry width="180" height="36" as="geometry" />
        </mxCell>
        <mxCell id="kR_IMpgb3ow4zJhTE3xn-98" value="Medical history" style="shape=partialRectangle;html=1;whiteSpace=wrap;connectable=0;strokeColor=#b85450;overflow=hidden;fillColor=#f8cecc;top=0;left=0;bottom=0;right=0;pointerEvents=1;" vertex="1" parent="kR_IMpgb3ow4zJhTE3xn-97">
          <mxGeometry width="90" height="36" as="geometry">
            <mxRectangle width="90" height="36" as="alternateBounds" />
          </mxGeometry>
        </mxCell>
        <mxCell id="kR_IMpgb3ow4zJhTE3xn-99" value="Character" style="shape=partialRectangle;html=1;whiteSpace=wrap;connectable=0;strokeColor=#b85450;overflow=hidden;fillColor=#f8cecc;top=0;left=0;bottom=0;right=0;pointerEvents=1;" vertex="1" parent="kR_IMpgb3ow4zJhTE3xn-97">
          <mxGeometry x="90" width="90" height="36" as="geometry">
            <mxRectangle width="90" height="36" as="alternateBounds" />
          </mxGeometry>
        </mxCell>
        <mxCell id="kR_IMpgb3ow4zJhTE3xn-100" value="" style="shape=tableRow;horizontal=0;startSize=0;swimlaneHead=0;swimlaneBody=0;strokeColor=inherit;top=0;left=0;bottom=0;right=0;collapsible=0;dropTarget=0;fillColor=none;points=[[0,0.5],[1,0.5]];portConstraint=eastwest;" vertex="1" parent="kR_IMpgb3ow4zJhTE3xn-96">
          <mxGeometry y="36" width="180" height="34" as="geometry" />
        </mxCell>
        <mxCell id="kR_IMpgb3ow4zJhTE3xn-101" value="idClinic" style="shape=partialRectangle;html=1;whiteSpace=wrap;connectable=0;strokeColor=inherit;overflow=hidden;fillColor=none;top=0;left=0;bottom=0;right=0;pointerEvents=1;" vertex="1" parent="kR_IMpgb3ow4zJhTE3xn-100">
          <mxGeometry width="90" height="34" as="geometry">
            <mxRectangle width="90" height="34" as="alternateBounds" />
          </mxGeometry>
        </mxCell>
        <mxCell id="kR_IMpgb3ow4zJhTE3xn-102" value="String" style="shape=partialRectangle;html=1;whiteSpace=wrap;connectable=0;strokeColor=inherit;overflow=hidden;fillColor=none;top=0;left=0;bottom=0;right=0;pointerEvents=1;" vertex="1" parent="kR_IMpgb3ow4zJhTE3xn-100">
          <mxGeometry x="90" width="90" height="34" as="geometry">
            <mxRectangle width="90" height="34" as="alternateBounds" />
          </mxGeometry>
        </mxCell>
        <mxCell id="kR_IMpgb3ow4zJhTE3xn-103" value="" style="shape=tableRow;horizontal=0;startSize=0;swimlaneHead=0;swimlaneBody=0;strokeColor=inherit;top=0;left=0;bottom=0;right=0;collapsible=0;dropTarget=0;fillColor=none;points=[[0,0.5],[1,0.5]];portConstraint=eastwest;" vertex="1" parent="kR_IMpgb3ow4zJhTE3xn-96">
          <mxGeometry y="70" width="180" height="36" as="geometry" />
        </mxCell>
        <mxCell id="kR_IMpgb3ow4zJhTE3xn-104" value="idDoctor" style="shape=partialRectangle;html=1;whiteSpace=wrap;connectable=0;strokeColor=inherit;overflow=hidden;fillColor=none;top=0;left=0;bottom=0;right=0;pointerEvents=1;" vertex="1" parent="kR_IMpgb3ow4zJhTE3xn-103">
          <mxGeometry width="90" height="36" as="geometry">
            <mxRectangle width="90" height="36" as="alternateBounds" />
          </mxGeometry>
        </mxCell>
        <mxCell id="kR_IMpgb3ow4zJhTE3xn-105" value="String" style="shape=partialRectangle;html=1;whiteSpace=wrap;connectable=0;strokeColor=inherit;overflow=hidden;fillColor=none;top=0;left=0;bottom=0;right=0;pointerEvents=1;" vertex="1" parent="kR_IMpgb3ow4zJhTE3xn-103">
          <mxGeometry x="90" width="90" height="36" as="geometry">
            <mxRectangle width="90" height="36" as="alternateBounds" />
          </mxGeometry>
        </mxCell>
        <mxCell id="kR_IMpgb3ow4zJhTE3xn-106" value="" style="shape=tableRow;horizontal=0;startSize=0;swimlaneHead=0;swimlaneBody=0;strokeColor=inherit;top=0;left=0;bottom=0;right=0;collapsible=0;dropTarget=0;fillColor=none;points=[[0,0.5],[1,0.5]];portConstraint=eastwest;" vertex="1" parent="kR_IMpgb3ow4zJhTE3xn-96">
          <mxGeometry y="106" width="180" height="34" as="geometry" />
        </mxCell>
        <mxCell id="kR_IMpgb3ow4zJhTE3xn-107" value="dateTime" style="shape=partialRectangle;html=1;whiteSpace=wrap;connectable=0;strokeColor=inherit;overflow=hidden;fillColor=none;top=0;left=0;bottom=0;right=0;pointerEvents=1;" vertex="1" parent="kR_IMpgb3ow4zJhTE3xn-106">
          <mxGeometry width="90" height="34" as="geometry">
            <mxRectangle width="90" height="34" as="alternateBounds" />
          </mxGeometry>
        </mxCell>
        <mxCell id="kR_IMpgb3ow4zJhTE3xn-108" value="String" style="shape=partialRectangle;html=1;whiteSpace=wrap;connectable=0;strokeColor=inherit;overflow=hidden;fillColor=none;top=0;left=0;bottom=0;right=0;pointerEvents=1;" vertex="1" parent="kR_IMpgb3ow4zJhTE3xn-106">
          <mxGeometry x="90" width="90" height="34" as="geometry">
            <mxRectangle width="90" height="34" as="alternateBounds" />
          </mxGeometry>
        </mxCell>
        <mxCell id="kR_IMpgb3ow4zJhTE3xn-109" style="edgeStyle=orthogonalEdgeStyle;rounded=0;orthogonalLoop=1;jettySize=auto;html=1;exitX=1;exitY=0.5;exitDx=0;exitDy=0;" edge="1" parent="1" source="kR_IMpgb3ow4zJhTE3xn-93">
          <mxGeometry relative="1" as="geometry">
            <mxPoint x="530" y="722" as="targetPoint" />
          </mxGeometry>
        </mxCell>
      </root>
    </mxGraphModel>
  </diagram>
</mxfile>
